<svg xmlns="http://www.w3.org/2000/svg" xmlns:xlink="http://www.w3.org/1999/xlink" width="566.93" height="306.14" preserveAspectRatio="xMidYMid meet" version="1.1" viewBox="0 0 566.929 306.142"><defs><path id="alUWBMT6R" d="M0 0L566.93 0L566.93 306.14L0 306.14L0 0Z"/><path id="cpLmOXiuo" d="M11.13 11.81L163.05 11.81L163.05 106.93L11.13 106.93L11.13 11.81Z"/><text id="eBnBT7Uaf" x="40" y="32.42" alignment-baseline="before-edge" dominant-baseline="text-before-edge" font-family="Verdana" font-size="11" font-style="normal" font-weight="normal" letter-spacing="0" transform="matrix(1 0 0 1 -23.51919656594489 -2.2604697225794306)" xml:space="preserve" style="line-height:100%"><tspan x="40" alignment-baseline="before-edge" dominant-baseline="text-before-edge" dy="0em" text-anchor="start">User Requests</tspan> <tspan x="40" alignment-baseline="before-edge" dominant-baseline="text-before-edge" dy="1.2em" text-anchor="start"> Start HTTP</tspan> <tspan x="40" alignment-baseline="before-edge" dominant-baseline="text-before-edge" dy="1.2em" text-anchor="start"> Start reading from File</tspan> <tspan x="40" alignment-baseline="before-edge" dominant-baseline="text-before-edge" dy="1.2em" text-anchor="start"> Timer</tspan></text><path id="cFQNEjTck" d="M423.18 136.67C423.18 199.99 371.78 251.39 308.46 251.39C245.15 251.39 193.75 199.99 193.75 136.67C193.75 73.36 245.15 21.96 308.46 21.96C371.78 21.96 423.18 73.36 423.18 136.67Z"/><text id="aZjBSxfgb" x="268.93" y="66.99" alignment-baseline="before-edge" dominant-baseline="text-before-edge" font-family="Verdana" font-size="14" font-style="normal" font-weight="normal" letter-spacing="0" transform="matrix(1 0 0 1 -13.181997546473497 5.419510854301677)" xml:space="preserve" style="line-height:100%"><tspan x="268.93" alignment-baseline="before-edge" dominant-baseline="text-before-edge" dy="0em" text-anchor="start">libuv Timers</tspan> <tspan x="268.93" alignment-baseline="before-edge" dominant-baseline="text-before-edge" dy="1.47em" text-anchor="start">I/O Callbacks</tspan> <tspan x="268.93" alignment-baseline="before-edge" dominant-baseline="text-before-edge" dy="1.47em" text-anchor="start">Idle, Prepare</tspan> <tspan x="268.93" alignment-baseline="before-edge" dominant-baseline="text-before-edge" dy="1.47em" text-anchor="start">Poll</tspan> <tspan x="268.93" alignment-baseline="before-edge" dominant-baseline="text-before-edge" dy="1.47em" text-anchor="start">Check</tspan> <tspan x="268.93" alignment-baseline="before-edge" dominant-baseline="text-before-edge" dy="1.47em" text-anchor="start">Close Callbacks</tspan></text><path id="akmw4noSW" d="M448.59 160.16L559.01 160.16L559.01 265.75L448.59 265.75L448.59 160.16Z"/><text id="a260vVslnQ" x="450.86" y="118.11" alignment-baseline="before-edge" dominant-baseline="text-before-edge" font-family="Verdana" font-size="14" font-style="normal" font-weight="normal" letter-spacing="0" transform="matrix(1 0 0 1 6.294367679281379 17.716546874999977)" xml:space="preserve" style="line-height:100%"><tspan x="450.86" alignment-baseline="before-edge" dominant-baseline="text-before-edge" dy="0em" text-anchor="start">Long Running</tspan></text><text id="b1hyYaMXDD" x="457.96" y="157.77" alignment-baseline="before-edge" dominant-baseline="text-before-edge" font-family="Verdana" font-size="14" font-style="normal" font-weight="normal" letter-spacing="0" transform="matrix(1 0 0 1 -3.130804432933246 8.445305061069263)" xml:space="preserve" style="line-height:100%"><tspan x="457.96" alignment-baseline="before-edge" dominant-baseline="text-before-edge" dy="0em" font-size="13" text-anchor="start">Read/Write File</tspan> <tspan x="457.96" alignment-baseline="before-edge" dominant-baseline="text-before-edge" dy="1.2em" text-anchor="start"> </tspan> <tspan x="457.96" alignment-baseline="before-edge" dominant-baseline="text-before-edge" dy="1.2em" text-anchor="start">HTTP Call</tspan> <tspan x="457.96" alignment-baseline="before-edge" dominant-baseline="text-before-edge" dy="1.2em" text-anchor="start"> </tspan> <tspan x="457.96" alignment-baseline="before-edge" dominant-baseline="text-before-edge" dy="1.2em" text-anchor="start">Promises</tspan></text><path id="c1ajveHM9N" d="M209.26 30.35L245.28 24.03L209.26 17.72L209.26 21.72L171.06 21.72L171.06 26.35L209.26 26.35L209.26 30.35Z"/><path id="c2ne2bxfG" d="M195.58 49.02L218.51 43.06L195.58 37.1L195.58 40.88L171.25 40.88L171.25 45.25L195.58 45.25L195.58 49.02Z"/><path id="bzKJxP5Lx" d="M187.88 65.92L203.74 60.49L187.88 55.06L187.88 58.5L171.06 58.5L171.06 62.48L187.88 62.48L187.88 65.92Z"/><path id="a3dAYYmhKP" d="M182.61 86.36L193.5 80.22L182.61 74.09L182.61 77.98L171.06 77.98L171.06 82.48L182.61 82.48L182.61 86.36Z"/><path id="a3r0jZwRvc" d="M509.35 119.47C494.52 54.77 453.18 25.69 385.33 32.23"/><path id="d1FzoEF9fz" d="M513.14 119.26L517.36 114.51L508.92 114.51L500.49 114.51L504.71 119.26L508.92 124.02L513.14 119.26Z"/><text id="a7pzIBNFs" x="451.77" y="25.86" alignment-baseline="before-edge" dominant-baseline="text-before-edge" font-family="Verdana" font-size="14" font-style="normal" font-weight="normal" letter-spacing="0" transform="matrix(1 0 0 1 8.858265624999945 -2.833988898527309)" xml:space="preserve" style="line-height:100%"><tspan x="451.77" alignment-baseline="before-edge" dominant-baseline="text-before-edge" dy="0em" text-anchor="start">Register</tspan> <tspan x="451.77" alignment-baseline="before-edge" dominant-baseline="text-before-edge" dy="1.2em" text-anchor="start"> Callback</tspan></text><path id="aifZ5dEOJ" d="M183.84 131.18L202.99 131.18L202.99 139.33L183.84 139.33L183.84 131.18Z"/><path id="a7RaPwOgc5" d="M415.62 129.92L434.77 129.92L434.77 138.08L415.62 138.08L415.62 129.92Z"/><path id="f1Q03TOnZW" d="M430.56 127.12L437.56 120.77L423.55 120.77L409.55 120.77L416.55 127.12L423.55 133.47L430.56 127.12Z"/><path id="eLN0QoUWW" d="M201.17 141.73L208.17 148.08L194.16 148.08L180.16 148.08L187.16 141.73L194.16 135.38L201.17 141.73Z"/><path id="a6AZbwLgGI"/><path id="a6sv7cV1Ga" d="M320.01 263.09C357.13 277.98 397.32 278.87 440.58 265.75"/><path id="b1z9ybZb9C" d="M317.99 266.38L318.9 272.59L324.24 265.75L329.57 258.9L323.33 259.54L317.08 260.17L317.99 266.38Z"/><text id="c1aTqh6Wxh" x="353.35" y="283.46" alignment-baseline="before-edge" dominant-baseline="text-before-edge" font-family="Verdana" font-size="11" font-style="normal" font-weight="normal" letter-spacing="0" transform="matrix(1 0 0 1 -25.589983143003735 -9.094484374999979)" xml:space="preserve" style="line-height:100%"><tspan x="353.35" alignment-baseline="before-edge" dominant-baseline="text-before-edge" dy="0em" text-anchor="start">Operation Complete</tspan></text><path id="b20Hr2gYkq" d="M62.92 121.96C96.25 213.68 163.86 259.19 265.75 258.48"/><path id="d3hVsDN7b" d="M68.66 121.94L73.92 125.5L65.75 127.58L57.58 129.66L60.49 124.02L63.41 118.37L68.66 121.94Z"/><text id="g33Nvji7EF" x="58.66" y="190.75" alignment-baseline="before-edge" dominant-baseline="text-before-edge" font-family="Verdana" font-size="11" font-style="normal" font-weight="normal" letter-spacing="0" transform="matrix(1 0 0 1 44.68085106382995 -12.765957446808557)" xml:space="preserve" style="line-height:100%"><tspan x="58.66" alignment-baseline="before-edge" dominant-baseline="text-before-edge" dy="0em" text-anchor="start">Trigger</tspan> <tspan x="58.66" alignment-baseline="before-edge" dominant-baseline="text-before-edge" dy="1.2em" text-anchor="start"> Callback</tspan></text></defs><g><g><g><use fill="#111" fill-opacity="1" opacity="1" xlink:href="#alUWBMT6R"/></g><g><g><use fill-opacity="0" stroke="#5ddb72" stroke-opacity="1" stroke-width="7.56" opacity="1" xlink:href="#cpLmOXiuo"/></g></g><g id="dMWpmGJzS"><use fill="#eee" fill-opacity="1" opacity="1" xlink:href="#eBnBT7Uaf"/></g><g><g><use fill-opacity="0" stroke="#5ddb72" stroke-opacity="1" stroke-width="7.56" opacity="1" xlink:href="#cFQNEjTck"/></g></g><g id="d4CeBr4YT"><use fill="#eee" fill-opacity="1" opacity="1" xlink:href="#aZjBSxfgb"/></g><g><g><use fill-opacity="0" stroke="#5ddb72" stroke-opacity="1" stroke-width="7.56" opacity="1" xlink:href="#akmw4noSW"/></g></g><g id="n4Le9EkvD"><use fill="#eee" fill-opacity="1" opacity="1" xlink:href="#a260vVslnQ"/></g><g id="gmEHXlE0z"><use fill="#eee" fill-opacity="1" opacity="1" xlink:href="#b1hyYaMXDD"/></g><g><use fill="#5ddb72" fill-opacity="1" opacity="1" xlink:href="#c1ajveHM9N"/></g><g><use fill="#5ddb72" fill-opacity="1" opacity="1" xlink:href="#c2ne2bxfG"/></g><g><use fill="#5ddb72" fill-opacity="1" opacity="1" xlink:href="#bzKJxP5Lx"/></g><g><use fill="#5ddb72" fill-opacity="1" opacity="1" xlink:href="#a3dAYYmhKP"/></g><g><g><use fill-opacity="0" stroke="#5ddb72" stroke-opacity="1" stroke-width="3.78" opacity="1" xlink:href="#a3r0jZwRvc"/></g></g><g><use fill="#5ddb72" fill-opacity="1" opacity="1" xlink:href="#d1FzoEF9fz"/></g><g id="a1RXymnIEf"><use fill="#eee" fill-opacity="1" opacity="1" xlink:href="#a7pzIBNFs"/></g><g><use fill="#111" fill-opacity="1" opacity="1" xlink:href="#aifZ5dEOJ"/></g><g><use fill="#111" fill-opacity="1" opacity="1" xlink:href="#a7RaPwOgc5"/></g><g><use fill="#5ddb72" fill-opacity="1" opacity="1" xlink:href="#f1Q03TOnZW"/></g><g><use fill="#5ddb72" fill-opacity="1" opacity="1" xlink:href="#eLN0QoUWW"/></g><g><g><use fill-opacity="0" stroke="#5ddb72" stroke-opacity="1" stroke-width="3.78" opacity="1" xlink:href="#a6AZbwLgGI"/></g></g><g><g><use fill-opacity="0" stroke="#5ddb72" stroke-opacity="1" stroke-width="3.78" opacity="1" xlink:href="#a6sv7cV1Ga"/></g></g><g><use fill="#5ddb72" fill-opacity="1" opacity="1" xlink:href="#b1z9ybZb9C"/></g><g id="c3mlC92BX8"><use fill="#eee" fill-opacity="1" opacity="1" xlink:href="#c1aTqh6Wxh"/></g><g><g><use fill-opacity="0" stroke="#5ddb72" stroke-opacity="1" stroke-width="3.78" opacity="1" xlink:href="#b20Hr2gYkq"/></g></g><g><use fill="#5ddb72" fill-opacity="1" opacity="1" xlink:href="#d3hVsDN7b"/></g><g id="a1viuMLBIW"><use fill="#eee" fill-opacity="1" opacity="1" xlink:href="#g33Nvji7EF"/></g></g></g></svg>